<svg width="28" height="21" viewBox="0 0 28 21" fill="none" xmlns="http://www.w3.org/2000/svg">
<path d="M23.7721 13.1885H10.2685L10.57 14.452H22.9346C23.644 14.452 24.1699 15.0166 24.0126 15.6096L23.7585 16.5681C24.6195 16.9263 25.2132 17.6829 25.2132 18.5583C25.2132 19.7903 24.0377 20.7869 22.5956 20.7692C21.2218 20.7522 20.092 19.7966 20.0549 18.6194C20.0346 17.9763 20.3352 17.3934 20.8289 16.9789H11.1716C11.6496 17.3803 11.9466 17.9394 11.9466 18.5583C11.9466 19.8144 10.7246 20.8259 9.24398 20.7669C7.9293 20.7146 6.8601 19.8041 6.791 18.6776C6.73766 17.8076 7.27173 17.0408 8.08316 16.6408L4.84726 3.08062H1.62813C1.01755 3.08062 0.522583 2.65636 0.522583 2.133V1.50126C0.522583 0.977904 1.01755 0.55365 1.62813 0.55365H6.35108C6.87627 0.55365 7.32894 0.87035 7.4342 1.31135L7.85643 3.08062H25.9497C26.6592 3.08062 27.185 3.64528 27.0278 4.23825L24.8502 12.4509C24.7358 12.8823 24.2883 13.1885 23.7721 13.1885ZM19.3169 7.18694H17.1058V5.60759C17.1058 5.25867 16.7759 4.97584 16.3688 4.97584H15.6318C15.2247 4.97584 14.8947 5.25867 14.8947 5.60759V7.18694H12.6836C12.2765 7.18694 11.9466 7.46976 11.9466 7.81868V8.45042C11.9466 8.79934 12.2765 9.08217 12.6836 9.08217H14.8947V10.6615C14.8947 11.0104 15.2247 11.2933 15.6318 11.2933H16.3688C16.7759 11.2933 17.1058 11.0104 17.1058 10.6615V9.08217H19.3169C19.724 9.08217 20.0539 8.79934 20.0539 8.45042V7.81868C20.0539 7.46976 19.724 7.18694 19.3169 7.18694Z" fill="white"/>
</svg>
