<svg width="72" height="52" viewBox="0 0 72 52" fill="none" xmlns="http://www.w3.org/2000/svg">
<path d="M70.3591 3.52625C70.8536 1.495 70.3591 0 67.9799 0H60.1073C58.1024 0 57.1801 1.28375 56.6856 2.71375C56.6856 2.71375 52.6757 14.5925 47.0085 22.295C45.1774 24.5212 44.3353 25.2362 43.3329 25.2362C42.8383 25.2362 42.0764 24.5212 42.0764 22.49V3.52625C42.0764 1.08875 41.5151 0 39.8577 0H27.4807C26.2243 0 25.4758 1.1375 25.4758 2.19375C25.4758 4.50125 28.3094 5.0375 28.6034 11.5375V25.6425C28.6034 28.73 28.149 29.2987 27.1465 29.2987C24.4733 29.2987 17.9774 17.3713 14.128 3.72125C13.3527 1.0725 12.5909 0 10.5726 0H2.69995C0.454447 0 0 1.28375 0 2.71375C0 5.24875 2.67322 17.8425 12.4438 34.4825C18.9531 45.8413 28.1222 52 36.4627 52C41.475 52 42.0898 50.635 42.0898 48.2787C42.0898 37.4237 41.6354 36.4 44.1482 36.4C45.311 36.4 47.3159 37.115 51.9941 42.5912C57.3405 49.0912 58.2227 52 61.2167 52H69.0893C71.3348 52 72.4709 50.635 71.816 47.9375C70.319 42.2663 60.2009 30.5987 59.7464 29.8187C58.5836 27.9987 58.9177 27.1862 59.7464 25.5612C59.7598 25.545 69.37 9.1 70.3591 3.52625Z" fill="#734C2F"/>
</svg>
