<svg width="71" height="68" viewBox="0 0 71 68" fill="none" xmlns="http://www.w3.org/2000/svg">
<path d="M60.3658 9.88125C53.7254 3.50625 44.8821 0 35.4842 0C16.0859 0 0.301116 15.1179 0.301116 33.6964C0.301116 39.6312 1.91763 45.4295 4.99219 50.5446L0 68L18.6533 63.3098C23.7882 65.9964 29.5728 67.408 35.4683 67.408H35.4842C54.8665 67.408 71 52.2902 71 33.7116C71 24.7107 67.0062 16.2563 60.3658 9.88125ZM35.4842 61.7313C30.2225 61.7313 25.0719 60.3804 20.5868 57.8304L19.525 57.2232L8.46295 60.0009L11.4107 49.6643L10.7134 48.6018C7.78147 44.1393 6.2442 38.9938 6.2442 33.6964C6.2442 18.2598 19.3665 5.69196 35.5 5.69196C43.3132 5.69196 50.6509 8.60625 56.1661 13.9036C61.6813 19.2009 65.0728 26.2286 65.0569 33.7116C65.0569 49.1634 51.6018 61.7313 35.4842 61.7313ZM51.5225 40.7545C50.6509 40.3295 46.3243 38.2955 45.5161 38.0223C44.7078 37.7339 44.1214 37.5973 43.535 38.4473C42.9487 39.2973 41.2688 41.1795 40.7458 41.7563C40.2386 42.3179 39.7156 42.3937 38.844 41.9688C33.6775 39.4946 30.2859 37.5518 26.8786 31.9509C25.9752 30.4634 27.7819 30.5696 29.4618 27.3518C29.7471 26.7902 29.6045 26.3045 29.3826 25.8795C29.1607 25.4545 27.4016 21.3107 26.6725 19.6259C25.9594 17.9866 25.2304 18.2143 24.6915 18.1839C24.1844 18.1536 23.598 18.1536 23.0116 18.1536C22.4252 18.1536 21.4743 18.3661 20.6661 19.2009C19.8578 20.0509 17.5915 22.0848 17.5915 26.2286C17.5915 30.3723 20.7453 34.3795 21.1732 34.9411C21.617 35.5027 27.3699 44.0027 36.1973 47.6607C41.7759 49.9679 43.9629 50.1652 46.7522 49.7705C48.448 49.5277 51.9504 47.7366 52.6795 45.7634C53.4085 43.7902 53.4085 42.1054 53.1866 41.7563C52.9806 41.3768 52.3942 41.1643 51.5225 40.7545Z" fill="#734C2F"/>
</svg>
